<svg xmlns="http://www.w3.org/2000/svg" width="30" height="30" viewBox="0 0 30 30">
    <g transform="translate(-68 -849)">
        <circle data-name="타원 62" cx="15" cy="15" r="15" transform="translate(68 849)"/>
        <g data-name="그룹 69056">
            <path data-name="패스 18419" d="M148.665 260.87a.667.667 0 1 0-.665-.67.667.667 0 0 0 .665.67z" transform="translate(-70.14 603.096)" style="fill:#fff"/>
            <path data-name="패스 18420" d="M176.4 260.87a.667.667 0 1 0-.668-.667.667.667 0 0 0 .668.667z" transform="translate(-87.972 603.096)" style="fill:#fff"/>
            <path data-name="패스 18421" d="M165.248 260.87a.667.667 0 1 0-.668-.667.667.667 0 0 0 .668.667z" transform="translate(-80.803 603.096)" style="fill:#fff"/>
            <path data-name="패스 18422" d="M142.659 255.632h3.981l1.36 2.223a.411.411 0 0 0 .043.064.454.454 0 0 0 .788 0 .306.306 0 0 0 .046-.068l1.357-2.223h3.98a2.681 2.681 0 0 0 2.669-2.692v-6.388a2.683 2.683 0 0 0-2.669-2.693h-11.555a2.68 2.68 0 0 0-2.666 2.693v6.388a2.678 2.678 0 0 0 2.666 2.696zm10.511-7.077a1.127 1.127 0 0 1 .868.4v-.3h1.005v2.938a1.5 1.5 0 0 1-1.511 1.624h-.4v-.917h.25c.732 0 .659-.761.659-.761v-.242a1.185 1.185 0 0 1-.909.4c-1.438 0-1.422-1.543-1.422-1.543a1.427 1.427 0 0 1 1.46-1.6zm-5.441 1.6c0-1.6 1.709-1.6 1.709-1.6a1.575 1.575 0 0 1 1.748 1.6c0 1.581-1.748 1.584-1.748 1.584a1.551 1.551 0 0 1-1.709-1.581zm-2.2-2.957c1.511 0 1.468 1.63 1.468 1.63v2.8h-1v-2.563c0-.885-.471-.864-.471-.864zm-3.7.1h1.033v1.65a1.37 1.37 0 0 1 .881-.411c1.4 0 1.456 1.582 1.456 1.582a1.529 1.529 0 0 1-1.456 1.62.991.991 0 0 1-.869-.449v.339h-1.044z" transform="translate(-64.993 613.141)" style="fill:#fff"/>
        </g>
    </g>
</svg>
