<svg xmlns="http://www.w3.org/2000/svg" width="30" height="30" viewBox="0 0 30 30">
    <g transform="translate(-132 -848.831)">
        <circle data-name="타원 62" cx="15" cy="15" r="15" transform="translate(132 848.831)"/>
        <path data-name="패스 18423" d="M413.972 257.8a2.443 2.443 0 0 0-2.283-2.081c-.715-.1-4.157-.228-6.889-.228s-6.174.128-6.889.228a2.442 2.442 0 0 0-2.282 2.081 32.34 32.34 0 0 0-.288 3.924v.212a32.408 32.408 0 0 0 .288 3.927 2.44 2.44 0 0 0 2.282 2.077c.715.1 4.16.228 6.9.228h-.012c2.735 0 6.177-.128 6.895-.229a2.444 2.444 0 0 0 2.283-2.077 32.675 32.675 0 0 0 .287-3.927v-.212a32.606 32.606 0 0 0-.292-3.923zm-11.172 7.258v-6.235l5.148 2.9z" transform="translate(-258.121 602.459)" style="fill:#fff"/>
    </g>
</svg>
