<svg xmlns="http://www.w3.org/2000/svg" width="30" height="30" viewBox="0 0 30 30">
    <g transform="translate(-188 -848.787)">
        <circle data-name="타원 62" cx="15" cy="15" r="15" transform="translate(188 848.787)"/>
        <g data-name="그룹 69057">
            <path data-name="패스 18424" d="M160.974 365.359h-6.3a4.3 4.3 0 0 0-4.3 4.3v6.3a4.3 4.3 0 0 0 4.3 4.3h6.3a4.3 4.3 0 0 0 4.3-4.3v-6.3a4.3 4.3 0 0 0-4.3-4.3m2.928 10.706a2.854 2.854 0 0 1-2.854 2.853h-6.443a2.854 2.854 0 0 1-2.854-2.853v-6.444a2.854 2.854 0 0 1 2.854-2.854h6.443a2.854 2.854 0 0 1 2.854 2.854z" transform="translate(45.067 491.088)" style="fill:#fff"/>
            <path data-name="패스 18425" d="M164.154 375.371a3.865 3.865 0 1 0 3.864 3.864 3.865 3.865 0 0 0-3.864-3.864m0 6.37a2.505 2.505 0 1 1 2.505-2.506 2.505 2.505 0 0 1-2.505 2.506" transform="translate(38.739 484.695)" style="fill:#fff"/>
            <path data-name="패스 18426" d="M180.437 372.475a.9.9 0 1 0 .9.9.9.9 0 0 0-.9-.9" transform="translate(26.45 486.544)" style="fill:#fff"/>
        </g>
    </g>
</svg>
